<svg width="534" height="67" fill="none" xmlns="http://www.w3.org/2000/svg"><path d="M3.43627 57.4489C3.23681 57.9701 2.79755 58.2487 2.1185 58.2845C1.66579 58.3084 1.26221 58.1879 0.907745 57.9228C0.55328 57.6578 0.390897 57.2692 0.420596 56.7569C0.583677 52.3221 1.28417 46.7808 2.52206 40.133C3.81655 33.4822 5.79914 27.5043 8.46984 22.1995C11.1405 16.8946 14.4847 14.1361 18.5025 13.924C20.9358 13.7955 22.2181 14.9762 22.3496 17.4661C22.4631 19.6164 21.777 22.2062 20.2913 25.2354C16.4149 33.498 11.3082 40.4919 4.97125 46.2173C4.82838 46.7356 4.7138 47.2523 4.62751 47.7676C4.59781 48.2799 4.53683 48.7371 4.44457 49.1392C4.37322 49.9374 4.2929 50.5658 4.20363 51.0245C5.76981 48.445 7.00552 46.5923 7.91074 45.4663C8.81299 44.2838 9.85828 43.6611 11.0466 43.5984C12.0086 43.5476 12.6192 43.8274 12.8784 44.438C13.1913 44.9889 13.3775 45.8302 13.4373 46.962C13.506 48.2635 13.6998 49.2464 14.0185 49.9105C14.3939 50.5716 15.2041 50.8693 16.449 50.8036C19.7877 50.6273 24.1341 47.5038 29.4881 41.4331C29.7591 41.1918 30.0927 41.0607 30.4888 41.0398C30.8849 41.0189 31.2617 41.1692 31.6191 41.4908C31.9736 41.7558 32.1613 42.0864 32.1822 42.4825C32.2061 42.9352 32.0289 43.3418 31.6508 43.7022C29.6765 46.0763 27.0485 48.4281 23.7668 50.7577C20.485 53.0873 17.5426 54.3208 14.9396 54.4582C14.2605 54.4941 13.6053 54.4436 12.9739 54.3067C11.708 53.9763 11.0213 52.7925 10.9138 50.7553L10.8866 48.6288C10.8538 48.0063 10.6705 47.7607 10.337 47.8918C9.33933 48.3416 8.17945 49.481 6.85737 51.31C5.58889 53.0793 4.44853 55.1256 3.43627 57.4489ZM5.4663 41.0841C7.35426 39.2253 9.35232 36.7649 11.4605 33.7028C13.5657 30.5841 15.309 27.5981 16.6905 24.7446C18.0719 21.8911 18.7283 19.8136 18.6596 18.5121C18.6327 18.0028 18.5016 17.6693 18.2663 17.5114C17.8552 17.2494 17.5083 17.1259 17.2253 17.1408C15.9804 17.2065 14.545 18.5024 12.9193 21.0282C11.3471 23.4946 9.86591 26.6087 8.47564 30.3705C7.08239 34.0758 6.07928 37.647 5.4663 41.0841Z" fill="#FDBC15"/><path d="M27.1973 55.0878C26.1877 55.3114 25.4013 54.9273 24.8383 53.9356C24.2186 52.9469 23.9698 51.9954 24.0917 51.081C24.2494 49.7675 24.7376 48.2664 25.5563 46.5775C26.3721 44.8321 27.3711 43.3323 28.5533 42.0783C29.7921 40.8212 31.0339 40.1598 32.2789 40.0941C33.8067 40.0134 35.1307 40.9082 36.2509 42.7784L36.2554 42.8633C36.9404 42.9406 37.3842 43.286 37.5869 43.8995C38.4809 46.8598 40.0313 48.2817 42.2382 48.1652C43.7661 48.0846 45.5679 47.2801 47.6435 45.7519C47.9711 45.5076 48.4625 45.1412 49.1176 44.6526C49.8264 44.1045 50.4234 43.5906 50.9088 43.1111L53.0841 40.7831C53.8881 39.8895 54.5448 39.4292 55.0541 39.4024C55.3936 39.3844 55.7138 39.5378 56.0147 39.8623C56.3185 40.2435 56.4824 40.6605 56.5063 41.1132C56.6314 41.3335 56.5868 41.5629 56.3724 41.8012C55.8453 42.5667 55.1217 43.371 54.2016 44.214C53.0134 45.3549 51.8207 46.4109 50.6236 47.382C49.4235 48.2966 48.0536 49.2201 46.514 50.1526C44.8611 51.091 43.2708 51.6006 41.7429 51.6812C39.3096 51.8097 37.3765 50.6634 35.9435 48.2422C33.7075 52.1055 30.792 54.3874 27.1973 55.0878ZM27.3752 50.3969C27.3961 50.7931 27.5764 50.9822 27.9159 50.9642C28.7081 50.9224 29.7817 50.2983 31.1367 49.0918C32.5452 47.8258 33.4459 46.615 33.8389 45.4593L33.9907 45.1108L33.5439 44.7088C33.1745 44.1609 32.7635 43.8988 32.3108 43.9227C31.6883 43.9556 31.0034 44.4173 30.2559 45.308C29.5085 46.1986 28.852 47.198 28.2863 48.306C27.7206 49.414 27.4169 50.111 27.3752 50.3969Z" fill="#FDBC15"/><path d="M57.6473 52.7993C57.0874 52.9423 56.7225 53.0183 56.5528 53.0273C55.2513 53.096 54.2907 52.636 53.671 51.6473C53.0484 50.602 52.6922 49.2305 52.6026 47.5329C52.5339 46.2314 52.6051 44.8941 52.8164 43.5211C53.0246 42.0914 53.3089 41.0266 53.6692 40.3267C53.9788 39.7429 54.4166 39.436 54.9824 39.4061C55.4352 39.3822 55.8402 39.5311 56.1977 39.8527C56.5521 40.1177 56.7413 40.4766 56.7652 40.9293C56.7772 41.1556 56.7072 41.443 56.5554 41.7915C55.8379 43.248 55.5239 44.8251 55.6135 46.5228C55.6344 46.9189 55.7194 47.4535 55.8684 48.1265C56.1516 49.1898 56.5761 49.7064 57.1419 49.6766C57.5946 49.6527 58.226 49.2505 59.036 48.47C61.2485 46.3104 62.9397 43.4122 64.1096 39.7754C64.4103 39.0219 64.9285 38.6257 65.6641 38.5868C65.8339 38.5779 66.0915 38.621 66.437 38.7163C66.437 38.7163 66.4385 38.7446 66.4415 38.8011C66.4981 38.7982 66.5264 38.7967 66.5264 38.7967L66.8793 39.0334L67.0581 39.1942L67.2458 39.5247L67.3396 39.69C67.9714 41.9832 69.221 43.0806 71.0884 42.982C71.9372 42.9371 72.7458 42.6675 73.5141 42.1729C74.2794 41.6218 75.3589 40.5718 76.7525 39.0228C77.3481 38.4807 77.8439 38.1991 78.2401 38.1782C78.6362 38.1573 78.9564 38.3106 79.2006 38.6382C79.4985 38.9062 79.6594 39.2666 79.6833 39.7193C79.7132 40.2852 79.5405 40.7766 79.1653 41.1936C78.0487 42.6145 76.6922 43.7926 75.096 44.7281C73.5534 45.604 72.0747 46.0793 70.66 46.154C69.5848 46.2107 68.7256 46.0575 68.0822 45.6942C67.4924 45.2714 66.776 44.5999 65.933 43.6797C64.5962 46.3039 63.3426 48.3561 62.1724 49.8366C61.0021 51.317 59.4938 52.3046 57.6473 52.7993Z" fill="#FDBC15"/><path d="M79 47C79 48 80 48 80 48 81 48 82 48 83 47 84 46 86 46 87 45 90 42 93 40 95 38 95 38 96 37 96 37 96 37 97 38 97 38 98 38 98 39 98 39 98 39 98 40 97 40 94 43 91 46 88 48 85 50 82 51 80 51 79 51 78 51 77 50 75 49 75 48 75 46 75 45 75 43 76 41 76 40 76 39 77 39 78 38 79 37 79 37 80 37 80 37 81 37 82 37 83 37 84 38 85 39 85 39 85 40 85 42 85 43 83 44 82 45 82 45 81 46L81 46C80 46 79 45 78 45 78 45 78 45 78 46 78 46 78 47 79 47ZM80 42C80 42 80 43 80 42 81 42 81 42 81 42 82 41 82 41 82 40 81 40 81 40 81 40 81 40 80 40 80 40 80 41 79 41 79 41 79 41 80 42 80 42ZM118 50C117 51 116 50 116 49 115 48 115 47 115 46 115 45 116 43 116 42 117 40 118 39 119 37 121 36 122 35 123 35 125 35 126 36 127 38L127 38C128 38 128 38 128 39 129 42 131 43 133 43 135 43 136 42 138 41 139 41 139 40 140 40 141 39 141 39 142 38L144 36C145 35 145 35 146 35 146 35 147 35 147 35 147 35 147 36 147 36 147 37 147 37 147 37 147 38 146 39 145 39 144 41 143 42 141 43 140 44 139 44 137 45 136 46 134 47 133 47 130 47 128 46 127 43 125 47 122 50 118 50ZM118 46C118 46 118 46 119 46 120 46 121 46 122 44 123 43 124 42 125 41L125 40 124 40C124 39 124 39 123 39 123 39 122 40 121 41 120 41 120 42 119 44 119 45 118 45 118 46Z" fill="#FDBC15"/><path d="M173 34C173 34 173 34 174 34 174 34 175 34 175 34 175 34 176 35 176 35 176 36 175 36 175 36 174 38 172 39 170 41 168 43 165 44 163 45 162 45 161 45 161 45 159 45 158 45 157 44 157 43 156 42 156 40 155 39 155 38 155 38 155 37 154 37 154 37 153 37 153 37 153 37 152 38 151 39 149 41 148 44 146 46 146 48 145 48 145 49 144 49 144 49 143 49 143 48 143 48 142 47 143 47L144 36C144 36 144 35 145 35 145 35 145 35 146 35 146 34 147 35 147 35 147 35 148 36 147 36L147 41C149 38 150 36 151 35 152 34 153 33 155 33 155 33 156 33 156 33 157 34 157 34 158 35 158 36 158 36 158 37 158 38 158 38 158 39 159 40 159 40 159 41 159 41 159 42 160 42 160 42 161 43 161 42 164 42 168 40 173 34ZM198 46C196 46 195 45 195 42 195 41 195 39 196 37 197 35 197 34 198 32 199 32 199 32 200 32 200 32 200 32 201 32 201 32 201 33 201 33 201 34 201 34 201 34 200 35 200 37 199 38 198 39 198 40 198 41 198 42 198 42 199 42 199 42 199 42 200 41 200 41 201 41 201 40 201 40 201 39 201 39 201 38 201 37 201 37 200 37 200 36 200 36 200 36 201 35 201 35 201 34 202 34 202 34 203 34 203 34 203 34 204 35 205 36 206 36 207 37 209 37 210 37 212 37 215 35 218 32 218 31 219 31 219 31 220 31 220 31 220 31 221 32 221 32 221 32 221 33 220 34 220 34 219 36 217 37 215 38 213 39 211 40 210 40 208 40 206 40 204 39 204 40 204 40 204 41 203 42 202 43 201 44 200 45 199 46 198 46Z" fill="#FDBC15"/><path d="M220.475 42.2449C219.286 42.3076 218.272 41.9072 217.432 41.0436C216.589 40.1235 216.138 39.0975 216.078 37.9658C216.033 37.1169 216.133 36.3172 216.377 35.5667C216.675 34.7565 217.136 33.8242 217.761 32.7698C218.178 32.0668 218.461 31.5128 218.61 31.1077C218.806 30.5299 219.216 30.2246 219.838 30.1917C220.291 30.1678 220.696 30.3166 221.054 30.6382C221.411 30.9598 221.602 31.347 221.626 31.7997C221.644 32.1392 221.6 32.3969 221.496 32.5726C221.237 33.0402 220.901 33.6538 220.487 34.4134C220.07 35.1163 219.762 35.7284 219.562 36.2497C219.414 36.6547 219.351 37.0836 219.375 37.5363C219.408 38.1588 219.715 38.5966 220.296 38.8496C221.165 39.2009 222.078 38.7555 223.034 37.5134C223.987 36.2147 224.797 34.8952 225.464 33.5548C226.187 32.2115 226.652 31.3357 226.857 30.9277C227.065 30.5762 227.308 30.3364 227.585 30.2083C227.916 30.0206 228.254 29.9744 228.599 30.0696C229.058 30.1589 229.411 30.3956 229.658 30.7798C229.959 31.1044 230.066 31.5243 229.98 32.0396C229.662 33.5318 229.51 34.9584 229.525 36.3195C229.531 36.4327 229.518 36.7171 229.485 37.1728C229.449 37.5719 229.491 37.8251 229.61 37.9323C229.968 38.2539 230.827 37.868 232.188 36.7748C233.605 35.6785 235.791 33.5486 238.745 30.3852C239.067 30.0277 239.425 29.8385 239.821 29.8176C240.218 29.7967 240.566 29.9485 240.867 30.2731C241.165 30.5411 241.326 30.9015 241.35 31.3542C241.368 31.6937 241.246 32.069 240.983 32.4801C240.456 33.2456 239.355 34.4103 237.678 35.9742C236.002 37.5381 234.316 38.9322 232.622 40.1566C230.981 41.3214 229.788 41.8383 229.043 41.7074C228.019 41.648 227.349 41.3145 227.033 40.707C226.717 40.0995 226.467 39.1196 226.282 37.7675L225.085 39.2777C223.483 41.1782 221.946 42.1672 220.475 42.2449Z" fill="#FDBC15"/><path d="M253.824 20.6516C254.675 20.6634 255.124 21.0937 255.169 21.9425C255.195 22.4518 255.05 22.9135 254.731 23.3275C254.412 23.7416 253.969 23.9352 253.4 23.9085C251.357 23.9029 250.25 23.9046 250.08 23.9135C249.118 23.9643 248.299 24.0359 247.623 24.1284L245.506 24.3253C244.041 27.7506 242.654 30.4909 241.343 32.5462L241.241 33.8284L241.317 35.2714C241.38 36.4597 241.742 37.4053 242.403 38.108C243.064 38.8108 243.989 39.1308 245.178 39.0681C246.309 39.0083 247.343 38.6984 248.278 38.1383C249.213 37.5783 250.249 36.7859 251.387 35.7611C253.01 34.2568 254.411 32.8493 255.59 31.5386C256.882 30.222 257.611 29.5026 257.774 29.3805C258.042 29.0826 258.403 28.9217 258.855 28.8978C259.252 28.8769 259.6 29.0287 259.901 29.3533C260.255 29.6183 260.445 29.9772 260.468 30.4299C260.489 30.826 260.339 31.2028 260.017 31.5603C259.213 32.4539 257.869 33.8584 255.984 35.7738C254.096 37.6326 252.746 38.9239 251.933 39.6478C250.956 40.4938 249.858 41.2043 248.64 41.7793C247.479 42.3513 246.304 42.6687 245.116 42.7315C244.38 42.7703 243.695 42.693 243.061 42.4995C240.696 41.7732 239.154 39.9819 238.436 37.1258C238.165 36.289 238.002 35.3612 237.948 34.3427C237.811 31.7396 238.527 28.6376 240.096 25.0365L235.7 25.6091C235.194 25.6925 234.791 25.6003 234.494 25.3323C234.136 25.0107 233.945 24.6235 233.922 24.1708C233.901 23.7747 234.024 23.4277 234.292 23.1298C234.501 22.7784 234.83 22.5624 235.279 22.4819C236.626 22.1838 238.707 21.8469 241.525 21.4712L242.677 19.1122C243.6 17.2476 244.27 15.9638 244.687 15.2609C244.952 14.9064 245.311 14.7172 245.763 14.6933C246.273 14.6664 246.706 14.8138 247.063 15.1354C247.474 15.3974 247.664 15.7563 247.631 16.212C247.616 17.0072 247.356 17.9856 246.85 19.1472C246.552 19.9574 246.358 20.5918 246.269 21.0505C247.797 20.9698 248.814 20.8877 249.32 20.8043L251.018 20.7146C252.037 20.6609 252.972 20.6399 253.824 20.6516Z" fill="#FDBC15"/><path d="M259.615 42.2213C258.572 41.8224 257.772 41.1837 257.215 40.3052C257.031 40.0312 256.931 39.7527 256.916 39.4698C256.895 39.0737 257.047 38.7252 257.371 38.4243C257.693 38.0669 258.052 37.8777 258.448 37.8568C258.901 37.8329 259.276 37.9549 259.574 38.2229L259.837 38.3792C260.311 38.7514 260.753 39.0686 261.164 39.3306L261.419 39.3171C262.042 39.2843 262.42 38.9238 262.554 38.2358C262.586 37.7801 262.452 37.39 262.151 37.0654C261.907 36.7378 261.492 36.3909 260.905 36.0247C260.67 35.8669 260.139 35.4976 259.314 34.917C258.486 34.2798 257.883 33.6023 257.505 32.8846C257.192 32.3336 257.023 31.8318 256.999 31.3791C256.955 30.5303 257.197 29.7514 257.727 29.0425C258.311 28.274 259.081 27.8078 260.037 27.6438C260.6 27.5573 261.09 27.7017 261.507 28.0769C261.921 28.3955 262.141 28.8095 262.168 29.3188C262.207 30.0544 261.835 30.528 261.051 30.7396C260.485 30.7695 260.356 31.0033 260.663 31.4411C260.967 31.8222 261.415 32.2525 262.008 32.732C262.601 33.2114 263.015 33.53 263.25 33.6878C264.194 34.3756 264.888 35.1618 265.332 36.0463C265.719 36.9338 265.919 37.4907 265.931 37.717C265.946 38 265.881 38.3723 265.735 38.8339C269.234 37.4008 273.591 33.9363 278.805 28.4404C279.186 28.1365 279.518 27.9771 279.801 27.9622C280.197 27.9413 280.546 28.0931 280.846 28.4177C281.144 28.6857 281.305 29.0461 281.329 29.4988C281.356 30.0081 281.207 30.4131 280.883 30.714C278.527 33.3919 275.545 36.0178 271.935 38.5917C268.326 41.1656 265.163 42.5242 262.447 42.6676C261.372 42.7244 260.428 42.5756 259.615 42.2213Z" fill="#FDBC15"/><path d="M279.897 24.978C279.286 25.2372 278.746 25.209 278.275 24.8934C277.861 24.5748 277.639 24.1325 277.609 23.5667C277.594 23.2837 277.666 23.0246 277.824 22.7893C277.978 22.4974 278.223 22.2859 278.556 22.1548C279.223 21.8926 280.339 21.5216 281.902 21.0418C282.462 20.8988 282.921 20.988 283.278 21.3096C283.636 21.6312 283.828 22.0467 283.855 22.556C283.876 22.9521 283.782 23.3259 283.573 23.6774C283.362 23.9723 283.06 24.1584 282.667 24.2359C282.276 24.37 281.801 24.5086 281.241 24.6517C280.735 24.7351 280.287 24.8439 279.897 24.978ZM279.698 40.5652C277.849 39.9251 276.971 38.3542 277.066 35.8524C277.161 33.3506 277.488 31.489 278.048 30.2678C278.608 29.0466 278.886 28.4077 278.883 28.3511C279.08 27.7733 279.489 27.468 280.112 27.4351C280.678 27.4052 281.144 27.636 281.51 28.1273C281.93 28.5591 282.043 29.0922 281.85 29.7266L281.622 30.2494C281.628 30.3626 281.603 30.4206 281.546 30.4236C281.499 30.5964 281.28 31.2889 280.89 32.5011C280.497 33.6568 280.327 34.7439 280.381 35.7625C280.441 36.8942 280.952 37.4347 281.914 37.3839C282.366 37.36 282.898 37.2185 283.509 36.9593C285.671 35.9939 287.864 34.5446 290.088 32.6113C292.367 30.6184 294.42 28.6658 296.248 26.7534C296.412 26.6313 296.635 26.5627 296.918 26.5478C297.314 26.5269 297.663 26.6787 297.964 27.0033C298.262 27.2713 298.423 27.6316 298.446 28.0843C298.479 28.7068 298.173 29.3472 297.526 30.0055C295.382 32.3885 292.613 34.7478 289.218 37.0834C285.823 39.419 283.107 40.6405 281.07 40.7481C280.561 40.775 280.103 40.714 279.698 40.5652Z" fill="#FDBC15"/><path d="M323.623 25.6486C323.891 25.3507 324.194 25.1928 324.534 25.1749C324.93 25.154 325.25 25.3073 325.494 25.6349C325.795 25.9595 325.958 26.3481 325.982 26.8008C326.011 27.3667 325.839 27.8582 325.464 28.2752C323.418 30.3693 321.033 32.4813 318.308 34.6113C315.58 36.6847 312.925 38.5272 310.343 40.1389C310.477 40.529 310.568 41.1768 310.616 42.0822C310.753 44.6853 310.122 47.7828 308.723 51.3749C307.381 54.964 305.593 58.1794 303.359 61.0211C301.186 63.9164 299.038 65.7038 296.918 66.3832C296.248 66.5888 295.658 66.7051 295.149 66.7319C293.112 66.8395 292.033 65.7615 291.914 63.498C291.809 61.5174 292.415 59.017 293.731 55.9968C294.99 52.9795 296.787 49.9339 299.122 46.8599C301.459 43.8424 303.992 41.297 306.72 39.2236C306.184 38.7412 305.74 38.3958 305.388 38.1874C305.037 37.979 304.635 37.8867 304.182 37.9106C303.333 37.9554 301.984 38.736 300.135 40.2523L299.894 40.5203C299.676 40.7021 299.398 40.8019 299.058 40.8198C298.606 40.8437 298.2 40.6949 297.843 40.3732C297.483 39.9951 297.29 39.5796 297.267 39.1269C297.249 38.7874 297.4 38.4389 297.722 38.0814L298.048 37.8089L298.374 37.5363C299.735 36.443 300.84 35.3349 301.689 34.2119C302.591 33.0294 303.426 31.6518 304.194 30.0791C303.357 30.3503 302.401 30.5142 301.326 30.571C299.911 30.6457 298.37 30.4717 296.702 30.049C295.955 29.8615 295.558 29.3434 295.514 28.4945C295.484 27.9287 295.628 27.4387 295.947 27.0247C296.322 26.6076 296.798 26.4974 297.376 26.6938C298.708 27.191 300.052 27.4037 301.41 27.332C303.165 27.2394 304.806 26.6137 306.333 25.4549C306.607 25.2702 306.857 25.1718 307.084 25.1599C307.593 25.133 308.029 25.3369 308.393 25.7717C308.81 26.1469 308.947 26.5937 308.804 27.1119C308.271 28.8424 307.697 30.3198 307.08 31.544C306.518 32.7086 305.785 33.8822 304.883 35.0647C305.839 34.9007 306.731 35.1374 307.559 35.7746C308.441 36.3523 308.98 36.8912 309.177 37.3916L311.799 35.4656C314.041 33.8719 316.088 32.3451 317.941 30.8854C319.79 29.3692 321.684 27.6236 323.623 25.6486ZM304.832 53.4529C305.925 51.5794 306.683 49.8087 307.105 48.1407C307.585 46.4698 307.852 45.0938 307.909 44.0126C307.968 42.9881 307.964 42.3641 307.895 42.1407C305.915 43.3235 303.912 45.1599 301.887 47.6501C299.862 50.1404 298.182 52.6975 296.845 55.3217C295.568 57.9994 294.969 60.1022 295.05 61.6301C295.077 62.1394 295.212 62.5578 295.457 62.8854C295.704 63.2695 295.997 63.4527 296.337 63.4347C297.072 63.3959 298.192 62.5707 299.696 60.9592C301.2 59.3477 302.912 56.8456 304.832 53.4529Z" fill="#FDBC15"/><path d="M325.122 34.4218C325.536 34.7404 326.054 34.8833 326.677 34.8504C327.186 34.8235 328.108 34.5479 329.442 34.0235C330.716 33.4455 332.147 32.6038 333.735 31.4986C336.689 29.4133 339.213 27.2372 341.306 24.9703C341.628 24.6129 341.986 24.4237 342.383 24.4028C342.835 24.3789 343.24 24.5277 343.598 24.8494C343.955 25.171 344.144 25.5298 344.165 25.9259C344.183 26.2655 344.031 26.6139 343.71 26.9714C340.491 30.4893 337.37 33.1793 334.347 35.0412C331.378 36.8436 328.79 37.8031 326.583 37.9196C325.169 37.9943 324.05 37.7696 323.228 37.2455C321.825 36.4684 321.071 35.0896 320.967 33.109C320.883 31.5245 321.191 29.8343 321.891 28.0382C322.242 27.1685 322.768 26.3747 323.467 25.6568C324.164 24.8823 324.93 24.3312 325.763 24.0035C326.264 23.8068 326.797 23.6935 327.363 23.6637C328.608 23.5979 329.683 24.0802 330.589 25.1106C331.134 25.7628 331.426 26.4567 331.464 27.1923C331.536 28.5504 330.953 29.858 329.714 31.1151C328.737 31.9611 327.911 32.4303 327.235 32.5227L326.98 32.5362C326.188 32.578 325.382 32.3652 324.563 31.8977C324.462 32.13 324.419 32.3877 324.434 32.6706C324.475 33.4628 324.705 34.0466 325.122 34.4218ZM326.117 29.0919C326.302 29.3659 326.536 29.4954 326.819 29.4804C327.215 29.4595 327.542 29.2152 327.801 28.7476C328.114 28.2204 328.148 27.793 327.904 27.4654C327.838 27.2986 327.664 27.2227 327.381 27.2377C327.098 27.2526 326.847 27.3226 326.626 27.4478C326.016 27.707 325.718 27.978 325.733 28.261C325.742 28.4307 325.87 28.7077 326.117 29.0919Z" fill="#FDBC15"/><path d="M342 41C342 41 341 41 341 41 339 41 338 41 337 40 336 38 336 37 336 35 336 33 336 31 338 29 339 27 341 25 343 24 343 24 343 24 343 24 344 24 344 24 344 24 344 23 344 23 344 22 344 21 344 20 344 19 343 17 344 14 345 10 346 7 347 5 349 3 349 2 350 1 351 1 352 0 354 0 355 0 356 0 357 0 357 1 358 1 359 2 359 3 360 4 360 6 360 7 360 9 360 12 359 14 359 16 358 18 358 19 357 21 356 22 356 22 356 23 355 26 353 29L352 30C353 31 353 31 354 31 356 31 357 30 359 29 361 28 363 26 366 24 366 23 367 23 367 23 367 23 368 23 368 23 368 24 368 24 369 24 369 25 368 26 368 26 365 29 363 31 360 33 358 35 356 35 354 35 353 35 352 35 352 35 351 35 351 34 350 34 348 37 345 40 342 41ZM349 28C351 25 353 22 355 17 356 13 357 9 356 6 356 5 356 5 356 4 355 4 355 4 354 4 354 4 353 4 352 4 351 5 351 5 350 6 349 8 348 10 348 13 347 15 347 18 347 20 347 21 347 22 347 22 347 23 348 24 348 25 349 27 349 28 349 28ZM339 35C339 37 340 37 340 37 341 37 342 37 343 35 345 34 346 33 346 33 347 32 347 32 347 31 347 30 346 28 345 26 345 26 344 27 343 28 342 29 341 30 340 32 339 33 339 34 339 35ZM392 19C392 19 391 19 391 19 390 19 390 18 390 18 390 17 390 17 390 17 390 17 391 16 391 16 392 16 393 16 394 15 395 15 395 15 396 15 396 16 396 16 396 17 396 17 396 17 396 18 396 18 395 18 395 18 395 18 394 19 394 19 393 19 393 19 392 19ZM392 35C390 34 389 32 389 30 389 27 390 26 390 24 391 23 391 22 391 22 391 22 392 22 392 22 393 21 393 22 394 22 394 23 394 23 394 24L394 24C394 24 394 24 394 24 394 25 394 25 393 27 393 28 393 29 393 30 393 31 393 32 394 31 395 31 395 31 396 31 398 30 400 29 402 27 405 25 407 23 409 21 409 21 409 21 409 21 410 21 410 21 410 21 411 21 411 22 411 22 411 23 410 23 410 24 408 26 405 29 402 31 398 33 395 35 393 35 393 35 392 35 392 35Z" fill="#FDBC15"/><path d="M407.433 34.332C407.051 34.6359 406.691 34.7968 406.351 34.8147C405.899 34.8386 405.495 34.718 405.141 34.453C404.786 34.188 404.625 33.8276 404.658 33.372C404.759 30.9833 405.043 28.8404 405.51 26.9431C405.921 25.0488 406.644 23.1664 407.681 21.2958C407.99 20.712 408.456 20.4037 409.079 20.3708C409.588 20.3439 410.05 20.4898 410.464 20.8084C410.875 21.0704 411.091 21.3995 411.112 21.7956C411.124 22.022 411.052 22.2811 410.897 22.573C409.864 24.5001 409.092 26.527 408.58 28.6536L415.606 21.4732C415.874 21.1753 416.234 21.0144 416.687 20.9905C417.14 20.9666 417.516 21.117 417.817 21.4416C418.175 21.7632 418.367 22.1786 418.394 22.6879C418.412 23.0274 418.314 23.8554 418.099 25.1719C417.942 26.4854 418.006 27.1629 418.292 27.2046C418.521 27.2492 419.007 26.7696 419.748 25.7658C420.489 24.762 420.941 24.1707 421.101 23.992C421.804 23.3307 422.374 22.8466 422.812 22.5398C423.307 22.2299 423.863 22.0303 424.483 21.9408C425.275 21.899 425.999 22.1729 426.654 22.7625C427.131 23.1913 427.496 23.6544 427.749 24.1517C428.002 24.6491 428.197 25.1211 428.335 25.5678C428.534 26.1247 428.725 26.5119 428.907 26.7293C429.085 26.8901 429.398 26.9019 429.845 26.7649C430.348 26.6248 431.085 26.0752 432.056 25.116C433.027 24.1568 433.969 23.1991 434.883 22.2429L437.144 19.9105C437.519 19.4935 437.904 19.2745 438.3 19.2536C438.697 19.2327 439.017 19.386 439.261 19.7136C439.559 19.9816 439.72 20.342 439.744 20.7947C439.765 21.1908 439.617 21.6241 439.302 22.0948C438.932 22.625 437.988 23.5544 436.47 24.883C435.008 26.2086 433.455 27.4255 431.811 28.5337C430.164 29.5853 428.831 30.138 427.813 30.1918C427.19 30.2246 426.755 30.049 426.508 29.6648C426.323 29.3908 426.131 28.9754 425.931 28.4185C425.788 27.8586 425.622 27.385 425.431 26.9979C425.297 26.6078 425.085 26.3636 424.796 26.2653C424.278 26.1225 423.773 26.2342 423.282 26.6006C422.791 26.9671 422.305 27.4466 421.826 28.0394C421.346 28.6322 420.973 29.0775 420.705 29.3754C419.847 30.3286 419.201 30.9869 418.766 31.3503C418.331 31.7138 417.746 31.9149 417.01 31.9537C416.558 31.9776 416.217 31.9673 415.987 31.9226C415.645 31.884 415.353 31.7291 415.112 31.4581C414.927 31.1842 414.796 30.8506 414.718 30.4575L414.674 29.6087C414.644 29.0428 414.655 28.191 414.709 27.0533L407.433 34.332Z" fill="#FDBC15"/><path d="M431.488 58.257C431.187 59.0106 430.698 59.4053 430.019 59.4411C429.509 59.468 429.074 59.2924 428.714 58.9142C428.356 58.5926 428.218 58.1176 428.298 57.4891C428.893 52.6343 430.094 46.3573 431.9 38.658C433.65 30.9617 435.311 24.8023 436.883 20.1796C437.13 19.4856 437.65 19.1177 438.442 19.0759C439.008 19.046 439.471 19.2202 439.832 19.5984C440.189 19.92 440.268 20.3414 440.069 20.8626C439.033 23.8113 437.974 27.4138 436.894 31.67C438.18 29.1621 439.51 26.9355 440.882 24.9905C442.252 22.9888 443.733 21.4919 445.327 20.4999C446.208 19.9994 447.045 19.7282 447.837 19.6864C448.856 19.6326 449.751 19.9258 450.522 20.5661C451.294 21.2063 451.714 22.1771 451.783 23.4787C451.869 25.1197 451.195 26.8577 449.76 28.6926C453.03 28.2929 456.1 27.3364 458.971 25.8229C461.899 24.3065 464.971 21.761 468.187 18.1865C468.455 17.8886 468.758 17.7307 469.098 17.7127C469.494 17.6918 469.842 17.8437 470.143 18.1683C470.501 18.4899 470.691 18.877 470.715 19.3297C470.739 19.7824 470.59 20.1875 470.269 20.545C465.924 25.314 461.387 28.5894 456.658 30.3712C454.6 31.1608 452.444 31.7002 450.189 31.9895C449.906 32.0045 449.54 32.0522 449.09 32.1327C448.697 32.2102 448.246 32.2623 447.737 32.2892C445.982 32.3819 445.072 31.8057 445.007 30.5608C444.929 30.1676 444.996 29.8236 445.208 29.5287C445.416 29.1773 445.654 28.8526 445.922 28.5547C446.19 28.2568 446.376 28.02 446.481 27.8443C446.856 27.4273 447.142 26.9298 447.338 26.352C447.534 25.7742 447.509 25.2932 447.262 24.909C447.196 24.7422 447.049 24.6365 446.82 24.5919C446.644 24.4877 446.473 24.4683 446.306 24.5339C446.023 24.5488 445.721 24.735 445.399 25.0925C444.857 25.5751 444.48 25.9638 444.269 26.2587C442.774 28.04 441.199 30.4497 439.543 33.4879C438.564 35.3554 437.491 38.1359 436.324 41.8292C435.213 45.5196 433.89 50.0156 432.354 55.3173L431.488 58.257Z" fill="#FDBC15"/><path d="M465.781 31.9324C464.771 32.1559 463.985 31.7719 463.422 30.7802C462.802 29.7915 462.553 28.8399 462.675 27.9256C462.833 26.6121 463.321 25.1109 464.14 23.4221C464.956 21.6766 465.955 20.1769 467.137 18.9228C468.376 17.6658 469.617 17.0044 470.862 16.9386C472.39 16.858 473.714 17.7527 474.834 19.623L474.839 19.7078C475.524 19.7852 475.968 20.1306 476.17 20.7441C477.064 23.7044 478.615 25.1263 480.822 25.0098C482.35 24.9291 484.151 24.1247 486.227 22.5964C486.555 22.3522 487.046 21.9858 487.701 21.4972C488.41 20.9491 489.007 20.4352 489.492 19.9556L491.668 17.6277C492.472 16.7341 493.128 16.2738 493.638 16.2469C493.977 16.229 494.297 16.3823 494.598 16.7069C494.902 17.0881 495.066 17.505 495.09 17.9577C495.215 18.1781 495.17 18.4074 494.956 18.6457C494.429 19.4113 493.705 20.2155 492.785 21.0585C491.597 22.1994 490.404 23.2555 489.207 24.2266C488.007 25.1411 486.637 26.0646 485.098 26.9971C483.445 27.9356 481.854 28.4451 480.326 28.5258C477.893 28.6543 475.96 27.5079 474.527 25.0868C472.291 28.95 469.376 31.2319 465.781 31.9324ZM465.959 27.2415C465.98 27.6376 466.16 27.8267 466.499 27.8088C467.292 27.767 468.365 27.1428 469.72 25.9364C471.129 24.6704 472.029 23.4595 472.422 22.3039L472.574 21.9554L472.127 21.5534C471.758 21.0054 471.347 20.7434 470.894 20.7673C470.272 20.8001 469.587 21.2619 468.839 22.1525C468.092 23.0432 467.435 24.0425 466.87 25.1506C466.304 26.2586 466 26.9556 465.959 27.2415Z" fill="#FDBC15"/><path d="M489.525 28.3806C488.512 27.4694 487.97 26.3348 487.898 24.9767C487.826 23.6185 488.178 22.2097 488.952 20.7502C489.723 19.2341 490.707 17.9905 491.904 17.0194C493.155 15.9887 494.403 15.4404 495.648 15.3747C497.176 15.2941 498.365 15.7987 499.217 16.8886C499.459 17.1596 499.59 17.4932 499.611 17.8893C499.641 18.4552 499.444 19.033 499.021 19.6228C498.596 20.1559 498.156 20.4345 497.704 20.4584C497.364 20.4763 497.074 20.3498 496.832 20.0788C496.472 19.7006 496.037 19.525 495.528 19.5519C494.679 19.5967 493.83 20.1806 492.982 21.3035C492.13 22.3699 491.73 23.3841 491.78 24.3461C491.855 25.7608 492.968 26.4114 495.118 26.2978C497.381 26.1783 499.944 25.277 502.806 23.5937C505.724 21.9075 508.795 19.3337 512.017 15.8724C512.285 15.5745 512.645 15.4136 513.098 15.3897C513.55 15.3658 513.956 15.5147 514.313 15.8363C514.667 16.1013 514.855 16.4319 514.876 16.828C514.891 17.1109 514.767 17.4579 514.505 17.869C512.052 20.8358 508.846 23.5302 504.888 25.9522C500.987 28.3713 497.509 29.6615 494.453 29.8228C492.359 29.9334 490.716 29.4526 489.525 28.3806Z" fill="#FDBC15"/><path d="M527.12 6.2227C527.972 6.23448 528.42 6.66477 528.465 7.51358C528.492 8.02288 528.346 8.48454 528.027 8.89858C527.709 9.31263 527.265 9.50629 526.696 9.47958C524.653 9.47395 523.546 9.47563 523.377 9.48459C522.415 9.53538 521.596 9.60699 520.919 9.69943L518.802 9.89635C517.337 13.3217 515.95 16.062 514.64 18.1172L514.537 19.3994L514.613 20.8424C514.676 22.0308 515.038 22.9763 515.699 23.6791C516.361 24.3819 517.285 24.7019 518.474 24.6392C519.606 24.5794 520.639 24.2695 521.574 23.7094C522.509 23.1493 523.545 22.3569 524.683 21.3322C526.306 19.8279 527.707 18.4204 528.886 17.1097C530.179 15.7931 530.907 15.0737 531.07 14.9516C531.338 14.6537 531.699 14.4928 532.152 14.4689C532.548 14.448 532.896 14.5998 533.197 14.9244C533.551 15.1894 533.741 15.5483 533.765 16.001C533.785 16.3971 533.635 16.7739 533.314 17.1313C532.51 18.025 531.165 19.4295 529.28 21.3448C527.392 23.2036 526.042 24.495 525.229 25.2188C524.252 26.0648 523.155 26.7753 521.937 27.3504C520.775 27.9224 519.6 28.2398 518.412 28.3025C517.676 28.3414 516.991 28.264 516.357 28.0705C513.992 27.3442 512.45 25.553 511.732 22.6969C511.461 21.86 511.298 20.9323 511.245 19.9137C511.107 17.3107 511.823 14.2086 513.392 10.6076L508.996 11.1801C508.49 11.2636 508.088 11.1713 507.79 10.9033C507.432 10.5817 507.242 10.1946 507.218 9.74188C507.197 9.34577 507.32 8.99877 507.588 8.7009C507.797 8.34942 508.126 8.13343 508.576 8.05295C509.922 7.75489 512.003 7.418 514.821 7.04227L515.973 4.68324C516.896 2.81865 517.566 1.53488 517.983 0.831923C518.248 0.477459 518.607 0.288273 519.059 0.264374C519.569 0.237485 520.002 0.384844 520.36 0.706443C520.771 0.968471 520.96 1.32733 520.927 1.78302C520.912 2.57823 520.652 3.55666 520.146 4.7183C519.848 5.52845 519.655 6.16287 519.565 6.62155C521.093 6.54088 522.11 6.45881 522.617 6.37533L524.314 6.2857C525.333 6.23193 526.268 6.21093 527.12 6.2227Z" fill="#FDBC15"/></svg>